# xmcd
#
# Track frame offsets:
#	150
#	16294
#	39251
#	56076
#	78621
#	94141
#	112456
#	131577
#	147391
#	168833
#
# Disc length: 2453 seconds
#
# Revision: 1
# Processed by: cddbd v1.5.1PL0 Copyright (c) Steve Scherf et al.
# Submitted via: audiograbber 1.83.01
#
DISCID=8909930a
DTITLE=Ugur Karatas - Davransana
DYEAR=1900
DGENRE=
TTITLE0=Davransan bre ogul
TTITLE1=Agliyorum
TTITLE2=Kapiyi çalan kimdir
TTITLE3=Herkes gibisin
TTITLE4=Hapishane Türüsü
TTITLE5=Sevdamiza prangalar vurulmaz
TTITLE6=Duy da gel
TTITLE7=Sen ile ben
TTITLE8=Çok uzaklarda
TTITLE9=Ali sevilmez mi?
EXTD=
EXTT0=
EXTT1=
EXTT2=
EXTT3=
EXTT4=
EXTT5=
EXTT6=
EXTT7=
EXTT8=
EXTT9=
PLAYORDER=
